<?xml version="1.0" encoding="utf-8"?><!DOCTYPE svg PUBLIC "-//W3C//DTD SVG 1.1//EN" "http://www.w3.org/Graphics/SVG/1.1/DTD/svg11.dtd"><svg version="1.1" xmlns="http://www.w3.org/2000/svg" xmlns:xlink="http://www.w3.org/1999/xlink" x="0px" y="0px" viewBox="-2 19.75 100 62.5" enable-background="new -2 19.75 100 62.5" xml:space="preserve"><g><g><path fill="none" d="M3,41.89c0.04,2.077,1.067,4.062,2.908,5.899c9.378-6.313,25.801-9.562,42.092-9.562
			c16.291,0,32.714,3.251,42.092,9.562c1.842-1.837,2.868-3.823,2.908-5.899v-0.256C92.816,32.298,72.742,24.75,48,24.75
			c-24.744,0-44.817,7.548-45,16.884V41.89z"></path><path fill="none" d="M10.214,51c8.021,4.678,21.942,7.774,37.786,7.774c15.842,0,29.766-3.097,37.785-7.774
			c-8.02-4.678-21.941-7.774-37.785-7.774S18.235,46.322,10.214,51z"></path><path fill="none" d="M93,60.129c-0.034-2.083-1.062-4.076-2.909-5.916C80.713,60.523,64.29,63.774,48,63.774
			s-32.712-3.251-42.091-9.562C4.062,56.054,3.035,58.046,3,60.129v0.219C3.156,69.692,23.241,77.25,48,77.25
			c24.758,0,44.844-7.558,45-16.902V60.129z"></path><path d="M93.703,32.25C85.476,24.012,66.652,19.75,48,19.75s-37.476,4.262-45.704,12.5C-0.435,34.985-2,38.16-2,41.761v18.477
			c0,3.602,1.565,6.775,4.297,9.511C10.524,77.988,29.348,82.25,48,82.25s37.476-4.262,45.703-12.5
			C96.436,67.016,98,63.84,98,60.238V41.761C98,38.16,96.436,34.985,93.703,32.25z M48,24.75c24.742,0,44.816,7.548,45,16.884v0.256
			c-0.04,2.077-1.066,4.062-2.908,5.899C80.714,41.476,64.291,38.227,48,38.227c-16.292,0-32.714,3.251-42.092,9.562
			C4.066,45.952,3.04,43.966,3,41.89v-0.256C3.183,32.298,23.256,24.75,48,24.75z M85.785,51c-8.02,4.678-21.943,7.774-37.785,7.774
			c-15.844,0-29.765-3.097-37.786-7.774c8.02-4.678,21.942-7.774,37.786-7.774S77.766,46.322,85.785,51z M48,77.25
			c-24.759,0-44.844-7.558-45-16.902v-0.219c0.035-2.083,1.062-4.076,2.909-5.916C15.288,60.525,31.71,63.774,48,63.774
			s32.713-3.251,42.091-9.562c1.847,1.841,2.875,3.833,2.909,5.916v0.219C92.844,69.692,72.758,77.25,48,77.25z"></path></g><ellipse stroke="#000000" stroke-miterlimit="10" cx="34.443" cy="60.806" rx="9.809" ry="5.192"></ellipse><ellipse stroke="#000000" stroke-miterlimit="10" cx="60.501" cy="56.938" rx="4.135" ry="2.188"></ellipse><ellipse stroke="#000000" stroke-miterlimit="10" cx="68.626" cy="66.974" rx="2.26" ry="1.196"></ellipse><ellipse stroke="#000000" stroke-miterlimit="10" cx="41.943" cy="55.806" rx="9.809" ry="5.192"></ellipse><ellipse stroke="#000000" stroke-miterlimit="10" cx="46.751" cy="65.688" rx="4.136" ry="2.188"></ellipse></g></svg>